<?xml version="1.0" standalone="no"?>
<!DOCTYPE svg PUBLIC "-//W3C//DTD SVG 20010904//EN"
 "http://www.w3.org/TR/2001/REC-SVG-20010904/DTD/svg10.dtd">
<svg version="1.0" xmlns="http://www.w3.org/2000/svg"
 width="1103.000000pt" height="631.000000pt" viewBox="0 0 1103.000000 631.000000"
 preserveAspectRatio="xMidYMid meet">

<g transform="translate(0.000000,631.000000) scale(0.100000,-0.100000)"
fill="#000000" stroke="none">
<path d="M140 3150 l0 -3050 5385 0 5385 0 0 3050 0 3050 -5385 0 -5385 0 0
-3050z m1800 2780 l0 -250 -890 0 -890 0 0 250 0 250 890 0 890 0 0 -250z
m750 0 l0 -250 -365 0 -365 0 0 250 0 250 365 0 365 0 0 -250z m740 0 l0 -250
-360 0 -360 0 0 250 0 250 360 0 360 0 0 -250z m750 0 l0 -250 -365 0 -365 0
0 250 0 250 365 0 365 0 0 -250z m740 0 l0 -250 -360 0 -360 0 0 250 0 250
360 0 360 0 0 -250z m750 0 l0 -250 -365 0 -365 0 0 250 0 250 365 0 365 0 0
-250z m750 0 l0 -250 -365 0 -365 0 0 250 0 250 365 0 365 0 0 -250z m740 0
l0 -250 -360 0 -360 0 0 250 0 250 360 0 360 0 0 -250z m750 0 l0 -250 -365 0
-365 0 0 250 0 250 365 0 365 0 0 -250z m740 0 l0 -250 -360 0 -360 0 0 250 0
250 360 0 360 0 0 -250z m750 0 l0 -250 -365 0 -365 0 0 250 0 250 365 0 365
0 0 -250z m740 0 l0 -250 -360 0 -360 0 0 250 0 250 360 0 360 0 0 -250z m750
0 l0 -250 -365 0 -365 0 0 250 0 250 365 0 365 0 0 -250z m-8950 -655 l0 -385
-890 0 -890 0 0 385 0 385 890 0 890 0 0 -385z m2240 0 l0 -385 -365 0 -365 0
0 385 0 385 365 0 365 0 0 -385z m740 0 l0 -385 -360 0 -360 0 0 385 0 385
360 0 360 0 0 -385z m750 0 l0 -385 -365 0 -365 0 0 385 0 385 365 0 365 0 0
-385z m750 0 l0 -385 -365 0 -365 0 0 385 0 385 365 0 365 0 0 -385z m740 0
l0 -385 -360 0 -360 0 0 385 0 385 360 0 360 0 0 -385z m750 0 l0 -385 -365 0
-365 0 0 385 0 385 365 0 365 0 0 -385z m740 0 l0 -385 -360 0 -360 0 0 385 0
385 360 0 360 0 0 -385z m750 0 l0 -385 -365 0 -365 0 0 385 0 385 365 0 365
0 0 -385z m740 0 l0 -385 -360 0 -360 0 0 385 0 385 360 0 360 0 0 -385z m750
0 l0 -385 -365 0 -365 0 0 385 0 385 365 0 365 0 0 -385z m-8950 -790 l0 -385
-890 0 -890 0 0 385 0 385 890 0 890 0 0 -385z m750 0 l0 -385 -365 0 -365 0
0 385 0 385 365 0 365 0 0 -385z m4470 0 l0 -385 -360 0 -360 0 0 385 0 385
360 0 360 0 0 -385z m750 0 l0 -385 -365 0 -365 0 0 385 0 385 365 0 365 0 0
-385z m740 0 l0 -385 -360 0 -360 0 0 385 0 385 360 0 360 0 0 -385z m750 0
l0 -385 -365 0 -365 0 0 385 0 385 365 0 365 0 0 -385z m740 0 l0 -385 -360 0
-360 0 0 385 0 385 360 0 360 0 0 -385z m750 0 l0 -385 -365 0 -365 0 0 385 0
385 365 0 365 0 0 -385z m-8950 -925 l0 -520 -890 0 -890 0 0 520 0 520 890 0
890 0 0 -520z m750 0 l0 -520 -365 0 -365 0 0 520 0 520 365 0 365 0 0 -520z
m740 0 l0 -520 -360 0 -360 0 0 520 0 520 360 0 360 0 0 -520z m5970 0 l0
-520 -365 0 -365 0 0 520 0 520 365 0 365 0 0 -520z m740 0 l0 -520 -360 0
-360 0 0 520 0 520 360 0 360 0 0 -520z m750 0 l0 -520 -365 0 -365 0 0 520 0
520 365 0 365 0 0 -520z m-8950 -925 l0 -385 -890 0 -890 0 0 385 0 385 890 0
890 0 0 -385z m750 0 l0 -385 -365 0 -365 0 0 385 0 385 365 0 365 0 0 -385z
m740 0 l0 -385 -360 0 -360 0 0 385 0 385 360 0 360 0 0 -385z m5970 0 l0
-385 -365 0 -365 0 0 385 0 385 365 0 365 0 0 -385z m740 0 l0 -385 -360 0
-360 0 0 385 0 385 360 0 360 0 0 -385z m750 0 l0 -385 -365 0 -365 0 0 385 0
385 365 0 365 0 0 -385z m-8950 -1065 l0 -660 -890 0 -890 0 0 660 0 660 890
0 890 0 0 -660z m750 0 l0 -660 -365 0 -365 0 0 660 0 660 365 0 365 0 0 -660z
m740 0 l0 -660 -360 0 -360 0 0 660 0 660 360 0 360 0 0 -660z m750 0 l0 -660
-365 0 -365 0 0 660 0 660 365 0 365 0 0 -660z m1490 0 l0 -660 -365 0 -365 0
0 660 0 660 365 0 365 0 0 -660z m1490 0 l0 -660 -360 0 -360 0 0 660 0 660
360 0 360 0 0 -660z m2980 0 l0 -660 -360 0 -360 0 0 660 0 660 360 0 360 0 0
-660z m750 0 l0 -660 -365 0 -365 0 0 660 0 660 365 0 365 0 0 -660z m-8950
-1065 l0 -385 -890 0 -890 0 0 385 0 385 890 0 890 0 0 -385z m750 0 l0 -385
-365 0 -365 0 0 385 0 385 365 0 365 0 0 -385z m740 0 l0 -385 -360 0 -360 0
0 385 0 385 360 0 360 0 0 -385z m750 0 l0 -385 -365 0 -365 0 0 385 0 385
365 0 365 0 0 -385z m740 0 l0 -385 -360 0 -360 0 0 385 0 385 360 0 360 0 0
-385z m750 0 l0 -385 -365 0 -365 0 0 385 0 385 365 0 365 0 0 -385z m750 0
l0 -385 -365 0 -365 0 0 385 0 385 365 0 365 0 0 -385z m740 0 l0 -385 -360 0
-360 0 0 385 0 385 360 0 360 0 0 -385z m750 0 l0 -385 -365 0 -365 0 0 385 0
385 365 0 365 0 0 -385z m740 0 l0 -385 -360 0 -360 0 0 385 0 385 360 0 360
0 0 -385z m750 0 l0 -385 -365 0 -365 0 0 385 0 385 365 0 365 0 0 -385z"/>
<path d="M551 5933 c-17 -43 -31 -81 -31 -85 0 -17 18 -6 28 17 9 20 19 25 47
25 29 0 37 -5 45 -25 5 -14 15 -25 21 -25 6 0 8 7 5 18 -39 104 -61 152 -71
152 -7 0 -27 -35 -44 -77z m63 0 c6 -20 4 -23 -18 -23 -29 0 -31 7 -14 45 12
27 19 23 32 -22z"/>
<path d="M683 5990 c-5 -14 -7 -52 -4 -85 5 -46 10 -61 24 -63 9 -2 17 1 17 7
0 6 -4 11 -10 11 -15 0 -12 87 3 93 9 4 9 8 1 14 -7 4 -14 17 -16 28 -4 18 -6
18 -15 -5z"/>
<path d="M740 6000 c0 -5 5 -10 10 -10 6 0 10 5 10 10 0 6 -4 10 -10 10 -5 0
-10 -4 -10 -10z"/>
<path d="M900 6000 c0 -5 5 -10 10 -10 6 0 10 5 10 10 0 6 -4 10 -10 10 -5 0
-10 -4 -10 -10z"/>
<path d="M1030 5985 c0 -22 -3 -24 -28 -19 -36 7 -56 -15 -56 -63 0 -43 23
-63 70 -61 l34 1 0 84 c0 49 -4 83 -10 83 -5 0 -10 -11 -10 -25z m-5 -80 c0
-34 -3 -40 -22 -43 -16 -2 -26 4 -34 21 -15 33 4 69 34 65 18 -2 22 -10 22
-43z"/>
<path d="M1290 5985 c0 -22 -3 -24 -28 -19 -36 7 -56 -15 -56 -63 0 -43 23
-63 70 -61 l34 1 0 84 c0 49 -4 83 -10 83 -5 0 -10 -11 -10 -25z m-5 -80 c0
-34 -3 -40 -22 -43 -16 -2 -26 4 -34 21 -15 33 4 69 34 65 18 -2 22 -10 22
-43z"/>
<path d="M740 5905 c0 -37 4 -65 10 -65 6 0 10 28 10 65 0 37 -4 65 -10 65 -6
0 -10 -28 -10 -65z"/>
<path d="M782 5959 c3 -8 14 -38 24 -66 10 -29 23 -53 29 -53 6 0 19 24 29 53
10 28 21 58 23 65 3 6 0 12 -6 12 -5 0 -18 -23 -28 -50 l-18 -50 -16 47 c-8
26 -21 49 -29 51 -8 3 -11 -1 -8 -9z"/>
<path d="M900 5905 c0 -37 4 -65 10 -65 6 0 10 28 10 65 0 37 -4 65 -10 65 -6
0 -10 -28 -10 -65z"/>
<path d="M1090 5955 c-17 -21 -7 -29 18 -14 20 13 52 7 52 -10 0 -6 -12 -13
-27 -17 -51 -11 -54 -13 -51 -41 3 -26 6 -28 53 -29 l50 -2 -4 52 c-1 28 -8
57 -13 64 -14 17 -63 15 -78 -3z m68 -72 c-4 -23 -58 -31 -58 -9 0 15 14 24
43 25 12 1 17 -5 15 -16z"/>
<path d="M1358 5959 c-13 -7 -18 -23 -18 -54 0 -47 17 -65 58 -65 22 0 49 27
38 37 -4 4 -11 2 -15 -6 -11 -18 -55 -10 -59 12 -3 14 4 17 42 17 50 0 57 10
30 48 -16 23 -48 28 -76 11z m62 -24 c11 -13 7 -15 -24 -15 -34 0 -44 8 -29
23 11 12 40 8 53 -8z"/>
<path d="M1483 5963 c-7 -2 -13 -15 -13 -28 0 -18 8 -26 35 -35 19 -6 35 -18
35 -26 0 -17 -41 -19 -58 -2 -6 6 -14 9 -17 6 -10 -10 26 -38 48 -38 58 1 65
58 10 75 -18 5 -33 15 -33 22 0 16 32 17 48 1 17 -17 28 -2 12 17 -12 15 -42
18 -67 8z"/>
<path d="M2210 5940 c0 -55 -4 -72 -15 -77 -9 -3 -22 2 -30 13 -17 24 -30 12
-15 -15 11 -22 44 -27 69 -12 9 6 16 35 19 85 4 66 2 76 -12 76 -13 0 -16 -12
-16 -70z"/>
<path d="M2283 5963 c-7 -2 -13 -12 -13 -21 0 -12 3 -13 12 -4 17 17 55 15 62
-3 4 -10 -3 -17 -22 -21 -46 -10 -52 -13 -58 -29 -11 -27 15 -45 62 -43 l44 2
0 44 c0 58 -14 82 -48 81 -15 0 -33 -3 -39 -6z m67 -72 c0 -15 -28 -33 -46
-29 -24 4 -29 25 -7 31 31 8 53 7 53 -2z"/>
<path d="M2400 5903 c0 -76 18 -84 22 -11 2 42 7 54 22 56 25 5 36 -14 36 -65
0 -24 5 -43 10 -43 13 0 13 86 0 111 -9 15 -20 19 -50 17 l-40 -3 0 -62z"/>
<path d="M2900 5925 c0 -50 4 -85 10 -85 6 0 10 18 10 40 l0 40 40 0 c22 0 40
5 40 10 0 6 -18 10 -40 10 -36 0 -40 3 -40 25 0 23 4 25 45 25 25 0 45 5 45
10 0 6 -25 10 -55 10 l-55 0 0 -85z"/>
<path d="M3047 5952 c-52 -58 17 -143 79 -98 25 19 12 31 -15 14 -15 -9 -26
-10 -38 -2 -34 21 -26 34 21 34 39 0 46 3 46 19 0 46 -62 67 -93 33z m71 -19
c2 -9 -8 -13 -32 -13 -28 0 -34 3 -29 16 7 18 54 16 61 -3z"/>
<path d="M3160 5960 c0 -24 43 -121 52 -118 17 6 58 128 43 128 -7 0 -18 -20
-25 -45 -7 -25 -16 -45 -20 -45 -4 0 -13 20 -20 45 -11 40 -30 62 -30 35z"/>
<path d="M3640 5926 c0 -51 4 -86 10 -86 6 0 10 30 11 68 l1 67 22 -65 c13
-36 29 -65 36 -65 7 0 23 29 36 65 l22 65 1 -67 c1 -38 5 -68 11 -68 6 0 10
35 10 85 0 107 -18 114 -51 20 -12 -36 -25 -65 -29 -65 -3 0 -15 28 -26 62
-13 41 -26 64 -37 66 -15 3 -17 -7 -17 -82z"/>
<path d="M3824 5956 c-10 -8 -16 -18 -11 -22 4 -4 13 -2 19 4 17 17 58 15 58
-3 0 -16 -5 -19 -52 -29 -21 -5 -28 -12 -28 -31 0 -26 2 -27 66 -30 l40 -1 -4
56 c-3 30 -10 58 -16 62 -18 12 -51 9 -72 -6z m64 -73 c-4 -23 -58 -31 -58 -9
0 15 14 24 43 25 12 1 17 -5 15 -16z"/>
<path d="M3940 5903 c0 -35 4 -63 10 -63 6 0 10 18 10 39 0 52 8 71 31 71 10
0 19 4 19 10 0 5 -16 9 -35 8 l-35 -1 0 -64z"/>
<path d="M4440 5988 c-48 -114 -58 -148 -44 -148 7 0 16 11 20 25 5 21 12 25
43 25 30 0 40 -5 49 -24 9 -21 18 -24 59 -24 58 1 83 19 83 63 0 41 -30 70
-65 61 -22 -6 -25 -3 -25 19 0 14 -4 25 -10 25 -5 0 -10 -34 -12 -77 l-3 -76
-30 73 c-32 80 -49 95 -65 58z m34 -76 c-36 -9 -43 1 -27 38 l15 35 13 -35
c10 -29 10 -36 -1 -38z m151 17 c4 -11 4 -31 1 -45 -11 -42 -66 -25 -66 21 0
43 53 63 65 24z"/>
<path d="M4670 5903 c0 -35 4 -63 10 -63 6 0 10 18 10 39 0 52 8 71 31 71 10
0 19 4 19 10 0 5 -16 9 -35 8 l-35 -1 0 -64z"/>
<path d="M5150 5925 c0 -50 4 -85 10 -85 6 0 10 28 11 63 l0 62 22 -59 c12
-33 27 -61 34 -63 6 -2 21 25 35 64 l23 68 3 -67 c4 -98 22 -84 22 18 0 75 -2
85 -17 82 -11 -2 -24 -25 -37 -66 -11 -34 -23 -62 -26 -62 -4 0 -17 29 -29 65
-33 94 -51 87 -51 -20z"/>
<path d="M5450 6000 c0 -5 5 -10 10 -10 6 0 10 5 10 10 0 6 -4 10 -10 10 -5 0
-10 -4 -10 -10z"/>
<path d="M5330 5955 c-17 -21 -7 -29 18 -14 20 13 52 7 52 -10 0 -6 -12 -13
-27 -17 -51 -11 -54 -13 -51 -41 3 -26 6 -28 53 -29 l50 -2 -4 52 c-1 28 -8
57 -13 64 -14 17 -63 15 -78 -3z m68 -72 c-4 -23 -58 -31 -58 -9 0 15 14 24
43 25 12 1 17 -5 15 -16z"/>
<path d="M5450 5905 c0 -37 4 -65 10 -65 6 0 10 28 10 65 0 37 -4 65 -10 65
-6 0 -10 -28 -10 -65z"/>
<path d="M5940 5940 c0 -55 -4 -72 -15 -77 -9 -3 -22 2 -30 13 -17 24 -30 12
-15 -15 11 -22 44 -27 69 -12 9 6 16 35 19 85 4 66 2 76 -12 76 -13 0 -16 -12
-16 -70z"/>
<path d="M6000 5910 c0 -65 3 -67 73 -68 27 0 27 1 27 64 0 36 -4 64 -10 64
-5 0 -10 -16 -10 -36 0 -45 -15 -74 -40 -74 -18 0 -20 7 -20 55 0 30 -4 55
-10 55 -6 0 -10 -27 -10 -60z"/>
<path d="M6130 5903 c0 -76 18 -84 22 -11 2 42 7 54 22 56 25 5 36 -14 36 -65
0 -24 5 -43 10 -43 13 0 13 86 0 111 -9 15 -20 19 -50 17 l-40 -3 0 -62z"/>
<path d="M6730 5940 c0 -56 -3 -72 -16 -77 -10 -4 -22 1 -30 12 -17 23 -33 11
-18 -13 14 -21 50 -27 70 -12 17 15 21 160 4 160 -6 0 -10 -30 -10 -70z"/>
<path d="M6910 5925 c0 -50 4 -85 10 -85 6 0 10 35 10 85 0 50 -4 85 -10 85
-6 0 -10 -35 -10 -85z"/>
<path d="M6780 5916 c0 -62 11 -75 63 -73 l37 1 0 63 c0 76 -18 85 -22 11 -3
-49 -5 -53 -28 -53 -23 0 -25 4 -28 53 -4 68 -22 67 -22 -2z"/>
<path d="M7400 5988 c-48 -114 -58 -148 -44 -148 7 0 16 11 20 25 5 21 12 25
43 25 31 0 40 -5 49 -25 11 -23 33 -35 31 -17 -2 22 -66 156 -76 159 -7 3 -17
-6 -23 -19z m34 -76 c-36 -9 -43 1 -27 38 l15 35 13 -35 c10 -29 10 -36 -1
-38z"/>
<path d="M7516 5954 c-21 -20 -20 -78 1 -99 9 -10 26 -15 40 -12 15 3 23 0 23
-10 0 -20 -30 -28 -52 -14 -25 15 -35 7 -18 -14 14 -17 43 -19 71 -5 16 9 19
22 19 88 l0 77 -34 2 c-21 2 -41 -3 -50 -13z m65 -25 c16 -31 -4 -71 -34 -67
-39 5 -37 88 2 88 11 0 25 -10 32 -21z"/>
<path d="M7646 5954 c-9 -8 -16 -31 -16 -49 0 -59 57 -87 93 -47 52 57 -24
150 -77 96z m70 -28 c10 -41 -4 -68 -34 -64 -21 2 -28 9 -30 31 -5 41 4 57 32
57 19 0 27 -7 32 -24z"/>
<path d="M8146 5994 c-32 -31 -17 -55 50 -76 41 -14 50 -34 23 -51 -21 -13
-69 -1 -69 18 0 8 -4 15 -10 15 -18 0 -11 -39 9 -50 47 -24 111 0 111 42 0 22
-18 34 -68 48 -32 8 -42 16 -40 28 4 23 66 29 74 8 8 -20 24 -21 24 -1 0 33
-76 47 -104 19z"/>
<path d="M8418 5983 c-2 -10 -2 -45 1 -78 6 -55 8 -60 31 -63 23 -2 24 -1 8
11 -21 17 -25 92 -5 101 10 5 10 7 0 12 -7 3 -13 12 -13 20 0 20 -17 17 -22
-3z"/>
<path d="M8308 5959 c-13 -7 -18 -23 -18 -54 0 -47 17 -65 58 -65 22 0 49 27
38 37 -4 4 -11 2 -15 -6 -11 -18 -55 -10 -59 12 -3 14 4 17 42 17 50 0 57 10
30 48 -16 23 -48 28 -76 11z m62 -24 c11 -13 7 -15 -24 -15 -34 0 -44 8 -29
23 11 12 40 8 53 -8z"/>
<path d="M8886 5989 c-21 -16 -26 -29 -26 -64 0 -35 5 -48 26 -64 71 -56 159
15 124 100 -22 52 -77 65 -124 28z m95 -15 c7 -9 13 -31 13 -49 0 -42 -19 -65
-55 -65 -37 0 -59 24 -59 65 0 18 7 41 16 49 20 21 68 20 85 0z"/>
<path d="M9191 5988 c0 -9 -7 -19 -13 -22 -10 -5 -10 -7 0 -12 7 -3 12 -26 12
-60 0 -47 2 -54 20 -54 23 0 27 15 5 24 -10 3 -15 19 -15 46 0 29 4 40 15 40
8 0 15 5 15 10 0 6 -6 10 -14 10 -8 0 -17 8 -19 18 -4 15 -5 15 -6 0z"/>
<path d="M9050 5916 c0 -62 11 -75 63 -73 l37 1 0 63 c0 76 -18 85 -22 11 -3
-49 -5 -53 -28 -53 -23 0 -25 4 -28 53 -4 68 -22 67 -22 -2z"/>
<path d="M9600 5925 c0 -50 4 -85 10 -85 6 0 10 29 10 67 l0 68 45 -68 c25
-37 50 -67 55 -67 6 0 10 36 10 85 0 97 -18 116 -22 24 l-3 -61 -43 61 c-23
34 -47 61 -52 61 -6 0 -10 -37 -10 -85z"/>
<path d="M9766 5948 c-44 -63 19 -138 79 -94 13 9 19 26 19 51 0 61 -66 90
-98 43z m75 -19 c8 -16 8 -28 0 -45 -18 -41 -71 -25 -71 21 0 44 50 61 71 24z"/>
<path d="M9880 5960 c0 -24 43 -121 52 -118 17 6 58 128 43 128 -7 0 -18 -20
-25 -45 -7 -25 -16 -45 -20 -45 -4 0 -13 20 -20 45 -11 40 -30 62 -30 35z"/>
<path d="M10330 5925 l0 -85 49 0 c42 0 53 4 70 26 12 15 21 41 21 59 0 18 -9
44 -21 59 -17 22 -28 26 -70 26 l-49 0 0 -85z m104 43 c35 -49 7 -108 -50
-108 l-34 0 0 65 0 65 34 0 c25 0 39 -7 50 -22z"/>
<path d="M10516 5954 c-9 -8 -16 -31 -16 -49 0 -58 57 -87 95 -49 19 20 12 32
-9 15 -20 -17 -60 -10 -64 12 -3 14 4 17 42 17 38 0 46 3 46 18 0 43 -63 67
-94 36z m68 -19 c4 -12 -3 -15 -29 -15 -33 0 -43 8 -28 23 12 13 51 7 57 -8z"/>
<path d="M10630 5960 c0 -5 14 -10 30 -10 17 0 30 -3 30 -6 0 -3 -16 -25 -35
-48 -19 -24 -35 -46 -35 -50 0 -3 25 -6 55 -6 30 0 55 5 55 10 0 6 -16 10 -35
10 -19 0 -35 3 -35 6 0 3 16 25 35 48 19 24 35 46 35 50 0 3 -22 6 -50 6 -27
0 -50 -4 -50 -10z"/>
<path d="M310 5405 l0 -85 60 0 c33 0 60 4 60 10 0 6 -22 10 -50 10 -49 0 -50
1 -50 30 0 29 2 30 45 30 25 0 45 5 45 10 0 6 -20 10 -45 10 -41 0 -45 2 -45
25 0 23 3 25 50 25 28 0 50 5 50 10 0 6 -27 10 -60 10 l-60 0 0 -85z"/>
<path d="M470 5405 c0 -50 4 -85 10 -85 6 0 10 35 10 85 0 50 -4 85 -10 85 -6
0 -10 -35 -10 -85z"/>
<path d="M640 5405 c0 -50 4 -85 10 -85 6 0 10 5 10 12 0 9 3 9 12 0 17 -17
35 -15 58 8 43 43 14 116 -42 108 -24 -4 -28 -1 -28 19 0 13 -4 23 -10 23 -6
0 -10 -35 -10 -85z m90 -14 c0 -16 -7 -34 -16 -42 -36 -30 -73 41 -39 75 23
23 55 4 55 -33z"/>
<path d="M1256 5482 c-14 -13 -4 -19 31 -18 20 1 38 6 40 12 3 10 -61 16 -71
6z"/>
<path d="M1650 5466 c0 -19 -4 -22 -25 -18 -52 9 -85 -57 -51 -103 9 -12 28
-19 55 -21 l41 -2 0 84 c0 49 -4 84 -10 84 -5 0 -10 -11 -10 -24z m-4 -62 c12
-48 -27 -84 -52 -49 -18 25 -18 50 1 69 20 20 44 10 51 -20z"/>
<path d="M521 5437 c-16 -20 0 -30 19 -12 19 17 50 10 50 -10 0 -7 -17 -17
-37 -22 -31 -7 -39 -14 -41 -36 -4 -29 -3 -29 64 -32 l41 -1 -4 51 c-3 27 -6
56 -8 63 -6 16 -70 16 -84 -1z m67 -74 c-4 -20 -35 -30 -50 -15 -15 15 0 32
28 32 19 0 25 -5 22 -17z"/>
<path d="M782 5438 c-7 -7 -12 -29 -12 -50 0 -29 6 -41 26 -55 24 -15 29 -15
53 -2 32 18 41 77 16 103 -19 19 -66 21 -83 4z m76 -50 c-6 -62 -68 -65 -68
-4 0 41 23 60 53 44 13 -6 17 -18 15 -40z"/>
<path d="M900 5383 c0 -35 4 -63 10 -63 6 0 10 18 10 41 0 44 16 83 30 74 5
-3 11 -1 15 5 3 5 -9 9 -30 8 l-35 -1 0 -64z"/>
<path d="M991 5437 c-16 -20 0 -30 19 -12 19 17 50 10 50 -10 0 -7 -17 -17
-37 -22 -31 -7 -39 -14 -41 -36 -4 -29 -3 -29 64 -32 l41 -1 -4 51 c-3 27 -6
56 -8 63 -6 16 -70 16 -84 -1z m67 -74 c-4 -20 -35 -30 -50 -15 -15 15 0 32
28 32 19 0 25 -5 22 -17z"/>
<path d="M1126 5434 c-24 -23 -21 -80 5 -98 12 -8 18 -19 15 -24 -3 -6 0 -13
6 -15 8 -3 6 -6 -4 -6 -10 -1 -18 -5 -18 -11 0 -12 20 -13 39 -1 12 7 12 13 3
24 -10 11 -7 16 13 25 14 6 25 18 25 27 0 19 -16 20 -24 0 -7 -20 -42 -19 -50
1 -19 50 15 101 47 69 18 -17 31 -7 16 12 -15 18 -54 17 -73 -3z"/>
<path d="M1251 5437 c-16 -20 0 -30 19 -12 19 17 50 10 50 -10 0 -7 -17 -17
-37 -22 -31 -7 -39 -14 -41 -36 -4 -29 -3 -29 64 -32 l41 -1 -4 51 c-3 27 -6
56 -8 63 -6 16 -70 16 -84 -1z m67 -74 c-4 -20 -35 -30 -50 -15 -15 15 0 32
28 32 19 0 25 -5 22 -17z"/>
<path d="M1382 5438 c-7 -7 -12 -29 -12 -50 0 -29 6 -41 26 -55 24 -15 29 -15
53 -2 32 18 41 77 16 103 -19 19 -66 21 -83 4z m76 -50 c-6 -62 -68 -65 -68
-4 0 41 23 60 53 44 13 -6 17 -18 15 -40z"/>
<path d="M1707 5432 c-23 -25 -21 -68 3 -92 35 -35 84 -20 95 30 14 64 -57
108 -98 62z m78 -32 c15 -46 -42 -82 -65 -41 -14 27 -13 47 6 65 19 19 49 7
59 -24z"/>
<path d="M1050 5210 c0 -5 5 -10 10 -10 6 0 10 5 10 10 0 6 -4 10 -10 10 -5 0
-10 -4 -10 -10z"/>
<path d="M1228 5193 c-2 -10 -2 -45 1 -78 6 -55 8 -60 31 -63 22 -2 23 -1 8 8
-21 13 -25 95 -5 104 10 5 10 7 0 12 -7 3 -13 12 -13 20 0 20 -17 17 -22 -3z"/>
<path d="M710 5089 c0 -53 4 -89 10 -89 6 0 10 13 10 28 0 26 3 28 28 24 36
-5 56 19 55 65 -1 45 -13 56 -63 59 l-40 2 0 -89z m81 45 c14 -38 -13 -79 -41
-64 -35 19 -21 90 17 90 8 0 18 -12 24 -26z"/>
<path d="M840 5113 c0 -35 4 -63 10 -63 6 0 10 23 10 51 0 42 3 52 20 56 30 8
24 22 -10 21 l-30 -1 0 -64z"/>
<path d="M930 5160 c-41 -41 -14 -110 42 -110 34 0 52 24 52 67 0 58 -54 83
-94 43z m70 -20 c23 -43 -23 -96 -54 -64 -19 18 -20 38 -6 65 14 25 46 24 60
-1z"/>
<path d="M1050 5100 c0 -64 -3 -81 -17 -90 -16 -9 -15 -10 7 -8 24 3 25 5 28
91 2 55 -1 87 -8 87 -6 0 -10 -31 -10 -80z"/>
<path d="M1110 5160 c-24 -24 -26 -57 -4 -88 18 -26 65 -30 84 -7 18 22 5 31
-15 11 -21 -20 -28 -20 -48 2 -25 28 -21 32 28 32 38 0 45 3 45 19 0 25 -26
51 -51 51 -10 0 -28 -9 -39 -20z m68 -22 c3 -14 -3 -18 -27 -18 -29 0 -41 17
-24 34 13 13 48 1 51 -16z"/>
<path d="M1312 5164 c-25 -17 -31 -81 -10 -102 17 -17 64 -15 82 4 24 24 20
80 -6 98 -12 9 -27 16 -33 16 -6 0 -21 -7 -33 -16z m56 -16 c33 -33 -1 -98
-40 -77 -18 10 -26 68 -11 82 10 11 38 8 51 -5z"/>
<path d="M640 4615 c0 -50 4 -85 10 -85 6 0 10 18 10 39 0 67 42 67 79 1 12
-22 29 -40 37 -40 17 0 14 8 -22 57 -24 31 -24 32 -3 38 16 5 19 14 17 38 -3
32 -3 32 -65 35 l-63 3 0 -86z m94 69 c21 -8 21 -40 0 -48 -9 -3 -29 -6 -45
-6 -24 0 -29 4 -29 23 0 13 3 27 7 30 8 9 46 9 67 1z"/>
<path d="M1060 4690 c0 -5 5 -10 10 -10 6 0 10 5 10 10 0 6 -4 10 -10 10 -5 0
-10 -4 -10 -10z"/>
<path d="M1250 4687 c0 -15 62 -16 67 -1 2 6 -11 11 -32 12 -22 1 -35 -3 -35
-11z"/>
<path d="M825 4644 c-25 -26 -16 -85 16 -103 24 -13 29 -13 54 3 31 20 27 34
-4 14 -15 -9 -26 -10 -38 -2 -34 21 -26 34 21 34 39 0 46 3 46 19 0 45 -62 68
-95 35z m75 -24 c0 -6 -16 -10 -35 -10 -38 0 -46 13 -18 29 19 10 53 -2 53
-19z"/>
<path d="M954 4598 c13 -34 28 -64 34 -66 5 -1 18 21 27 50 10 29 20 59 23 66
2 6 0 12 -6 12 -6 0 -16 -17 -22 -37 -18 -57 -26 -59 -40 -9 -7 26 -19 46 -26
46 -10 0 -7 -16 10 -62z"/>
<path d="M1060 4595 c0 -37 4 -65 10 -65 6 0 10 28 10 65 0 37 -4 65 -10 65
-6 0 -10 -28 -10 -65z"/>
<path d="M1111 4646 c-19 -23 -7 -42 33 -56 20 -6 36 -16 36 -21 0 -17 -32
-23 -52 -10 -27 16 -38 3 -14 -15 23 -17 40 -18 67 -4 33 18 24 50 -21 67 -22
9 -40 19 -40 23 0 16 29 18 50 3 20 -14 22 -14 18 3 -4 25 -59 31 -77 10z"/>
<path d="M1247 4653 c-4 -3 -7 -12 -7 -20 0 -11 4 -11 23 2 20 13 26 13 43 1
18 -14 18 -15 -6 -24 -14 -5 -34 -11 -45 -13 -25 -5 -31 -41 -10 -59 13 -11
23 -11 46 -3 16 6 29 7 29 2 0 -5 5 -9 10 -9 13 0 13 86 0 111 -11 19 -68 28
-83 12z m63 -83 c-12 -22 -45 -27 -56 -9 -8 14 14 29 44 29 20 0 21 -3 12 -20z"/>
<path d="M1375 4644 c-25 -26 -16 -85 16 -103 24 -13 29 -13 53 2 20 14 26 26
26 55 0 21 -5 43 -12 50 -17 17 -64 15 -83 -4z m75 -50 c0 -38 -21 -54 -49
-37 -23 14 -27 64 -5 80 27 20 54 -1 54 -43z"/>
<path d="M440 4347 l0 -84 39 -1 c44 -2 71 23 71 65 0 34 -36 66 -66 59 -21
-6 -24 -3 -24 19 0 14 -4 25 -10 25 -6 0 -10 -34 -10 -83z m80 4 c14 -27 13
-47 -6 -65 -22 -23 -54 -4 -54 32 0 48 40 70 60 33z"/>
<path d="M570 4420 c0 -5 5 -10 10 -10 6 0 10 5 10 10 0 6 -4 10 -10 10 -5 0
-10 -4 -10 -10z"/>
<path d="M620 4347 l0 -84 37 -1 c48 -2 63 12 63 59 0 46 -23 73 -56 65 -21
-6 -24 -3 -24 19 0 14 -4 25 -10 25 -6 0 -10 -34 -10 -83z m81 -3 c14 -38 -13
-79 -41 -64 -20 11 -29 68 -13 83 15 16 44 5 54 -19z"/>
<path d="M750 4345 c0 -50 4 -85 10 -85 6 0 10 35 10 85 0 50 -4 85 -10 85 -6
0 -10 -35 -10 -85z"/>
<path d="M800 4420 c0 -5 5 -10 10 -10 6 0 10 5 10 10 0 6 -4 10 -10 10 -5 0
-10 -4 -10 -10z"/>
<path d="M1237 4423 c-10 -9 -9 -23 2 -23 5 0 11 7 15 15 5 15 -5 20 -17 8z"/>
<path d="M1333 4423 c-7 -2 -13 -11 -13 -18 0 -7 -6 -16 -12 -19 -10 -5 -10
-7 0 -12 7 -3 12 -26 12 -60 0 -30 5 -54 10 -54 6 0 10 24 10 54 0 34 5 57 13
60 10 5 10 7 0 12 -18 8 -16 24 2 24 8 0 15 5 15 10 0 10 -16 12 -37 3z"/>
<path d="M1380 4420 c0 -5 5 -10 10 -10 6 0 10 5 10 10 0 6 -4 10 -10 10 -5 0
-10 -4 -10 -10z"/>
<path d="M570 4325 c0 -37 4 -65 10 -65 6 0 10 28 10 65 0 37 -4 65 -10 65 -6
0 -10 -28 -10 -65z"/>
<path d="M800 4325 c0 -37 4 -65 10 -65 6 0 10 28 10 65 0 37 -4 65 -10 65 -6
0 -10 -28 -10 -65z"/>
<path d="M862 4374 c-26 -18 -30 -74 -6 -98 18 -19 65 -21 82 -4 21 21 15 85
-10 102 -12 9 -27 16 -33 16 -6 0 -21 -7 -33 -16z m66 -44 c3 -23 -2 -38 -14
-47 -25 -18 -54 1 -54 35 0 34 18 54 45 50 15 -2 21 -12 23 -38z"/>
<path d="M991 4373 c-24 -17 -28 -69 -8 -97 10 -14 23 -17 45 -14 35 5 40 -3
16 -26 -19 -20 -19 -20 -49 0 -14 9 -25 12 -25 7 0 -17 24 -33 50 -33 47 0 55
14 58 98 l4 78 -35 1 c-20 1 -45 -6 -56 -14z m59 -22 c14 -27 13 -47 -6 -65
-22 -23 -54 -4 -54 32 0 48 40 70 60 33z"/>
<path d="M1110 4323 c0 -36 4 -63 10 -63 6 0 10 23 10 51 0 42 3 52 20 56 31
8 24 22 -10 20 -30 -2 -30 -2 -30 -64z"/>
<path d="M1199 4370 c-20 -16 -21 -19 -6 -20 9 0 17 5 17 10 0 15 47 12 53 -4
8 -19 -1 -26 -33 -26 -32 0 -53 -21 -48 -47 3 -14 14 -18 56 -19 l52 -1 0 48
c0 74 -41 101 -91 59z m65 -58 c7 -11 -7 -30 -24 -32 -44 -7 -56 14 -17 30 29
11 35 12 41 2z"/>
<path d="M1380 4325 c0 -37 4 -65 10 -65 6 0 10 28 10 65 0 37 -4 65 -10 65
-6 0 -10 -28 -10 -65z"/>
<path d="M1446 4374 c-20 -19 -21 -88 -2 -103 20 -17 67 -10 80 11 17 27 -2
33 -23 7 -16 -20 -21 -21 -35 -10 -21 18 -21 80 0 88 9 3 25 1 36 -6 27 -16
38 -3 14 15 -26 18 -51 18 -70 -2z"/>
<path d="M1574 4376 c-24 -18 -13 -31 14 -15 21 13 52 7 52 -11 0 -11 -7 -14
-53 -25 -24 -5 -28 -10 -25 -33 3 -25 7 -27 53 -29 l50 -1 -3 51 c-5 71 -41
97 -88 63z m66 -71 c0 -17 -36 -39 -50 -30 -6 3 -10 12 -10 20 0 12 9 16 53
24 4 0 7 -6 7 -14z"/>
<path d="M470 3825 l0 -85 65 0 c37 0 65 4 65 10 0 6 -25 10 -55 10 -54 0 -55
0 -55 30 0 29 1 30 50 30 28 0 50 5 50 10 0 6 -22 10 -50 10 -47 0 -50 2 -50
25 0 23 3 25 50 25 28 0 50 5 50 10 0 6 -27 10 -60 10 l-60 0 0 -85z"/>
<path d="M630 3825 c0 -50 4 -85 10 -85 6 0 10 35 10 85 0 50 -4 85 -10 85 -6
0 -10 -35 -10 -85z"/>
<path d="M810 3828 l0 -83 33 0 c47 0 67 20 67 65 0 44 -20 64 -55 58 -21 -4
-25 -1 -25 18 0 13 -4 24 -10 24 -6 0 -10 -34 -10 -82z m80 -16 c0 -52 -42
-70 -62 -27 -9 19 -8 29 6 50 14 21 20 24 36 15 13 -7 20 -21 20 -38z"/>
<path d="M1420 3897 c0 -15 62 -16 67 -1 2 6 -11 11 -32 12 -22 1 -35 -3 -35
-11z"/>
<path d="M687 3863 c-4 -3 -7 -12 -7 -20 0 -11 4 -11 23 2 20 13 26 13 43 1
18 -14 18 -15 -6 -24 -14 -5 -34 -11 -45 -13 -25 -5 -31 -41 -10 -59 13 -11
23 -11 46 -3 16 6 29 7 29 2 0 -5 5 -9 10 -9 13 0 13 86 0 111 -11 19 -68 28
-83 12z m63 -83 c-12 -22 -45 -27 -56 -9 -8 14 14 29 44 29 20 0 21 -3 12 -20z"/>
<path d="M945 3854 c-25 -26 -16 -85 16 -103 24 -13 29 -13 53 2 20 14 26 26
26 55 0 21 -5 43 -12 50 -17 17 -64 15 -83 -4z m75 -50 c0 -38 -21 -54 -49
-37 -23 14 -27 64 -5 80 27 20 54 -1 54 -43z"/>
<path d="M1070 3803 c0 -35 4 -63 10 -63 6 0 10 25 10 55 0 48 2 55 20 55 11
0 20 5 20 10 0 6 -13 9 -30 8 -30 -2 -30 -2 -30 -65z"/>
<path d="M1157 3863 c-4 -3 -7 -12 -7 -20 0 -11 4 -11 23 2 20 13 26 13 43 1
18 -14 18 -15 -6 -24 -14 -5 -34 -11 -45 -13 -25 -5 -31 -41 -10 -59 13 -11
23 -11 46 -3 16 6 29 7 29 2 0 -5 5 -9 10 -9 13 0 13 86 0 111 -11 19 -68 28
-83 12z m63 -83 c-12 -22 -45 -27 -56 -9 -8 14 14 29 44 29 20 0 21 -3 12 -20z"/>
<path d="M1286 3855 c-21 -22 -20 -71 2 -93 27 -27 35 -52 17 -52 -8 0 -15 -4
-15 -10 0 -5 9 -10 20 -10 24 0 39 29 20 40 -9 6 -7 10 9 15 11 3 26 15 31 26
13 24 3 25 -22 2 -39 -35 -79 34 -42 71 15 16 18 16 41 1 23 -16 25 -16 21 2
-4 24 -60 30 -82 8z"/>
<path d="M1417 3863 c-4 -3 -7 -12 -7 -20 0 -11 4 -11 23 2 20 13 26 13 43 1
18 -14 18 -15 -6 -24 -14 -5 -34 -11 -45 -13 -25 -5 -31 -41 -10 -59 13 -11
23 -11 46 -3 16 6 29 7 29 2 0 -5 5 -9 10 -9 13 0 13 86 0 111 -11 19 -68 28
-83 12z m63 -83 c-12 -22 -45 -27 -56 -9 -8 14 14 29 44 29 20 0 21 -3 12 -20z"/>
<path d="M1545 3854 c-25 -26 -16 -85 16 -103 24 -13 29 -13 53 2 20 14 26 26
26 55 0 21 -5 43 -12 50 -17 17 -64 15 -83 -4z m75 -50 c0 -38 -21 -54 -49
-37 -23 14 -27 64 -5 80 27 20 54 -1 54 -43z"/>
<path d="M950 3609 c0 -27 -2 -30 -15 -19 -12 10 -22 10 -39 2 -30 -13 -41
-55 -24 -90 11 -23 20 -27 56 -28 l42 -2 0 84 c0 49 -4 84 -10 84 -5 0 -10
-14 -10 -31z m-12 -41 c19 -19 15 -66 -8 -78 -16 -9 -22 -6 -36 15 -29 44 9
98 44 63z"/>
<path d="M1014 3586 c-24 -18 -13 -31 14 -15 21 13 52 7 52 -11 0 -11 -7 -14
-53 -25 -24 -5 -28 -10 -25 -33 3 -25 7 -27 53 -29 l50 -1 -3 51 c-5 71 -41
97 -88 63z m66 -71 c0 -17 -36 -39 -50 -30 -6 3 -10 12 -10 20 0 12 9 16 53
24 4 0 7 -6 7 -14z"/>
<path d="M1140 3585 c-19 -23 -7 -49 28 -59 33 -9 43 -30 18 -39 -7 -3 -24 1
-36 10 -20 14 -22 14 -18 -3 2 -15 12 -19 43 -19 38 0 40 2 40 30 0 24 -5 31
-32 39 -18 5 -33 15 -33 22 0 17 32 18 48 2 6 -6 15 -8 19 -4 10 10 -25 36
-48 36 -9 0 -22 -7 -29 -15z"/>
<path d="M1276 3351 c-3 -4 10 -8 29 -9 19 -1 36 2 39 7 3 4 -10 8 -29 9 -19
1 -36 -2 -39 -7z"/>
<path d="M485 3310 c-11 -18 1 -23 23 -9 11 7 27 9 36 6 23 -9 20 -37 -5 -37
-34 0 -59 -19 -59 -46 0 -23 3 -24 50 -23 l51 2 -3 56 -3 56 -42 3 c-23 2 -44
-2 -48 -8z m62 -87 c-18 -18 -47 -11 -47 11 0 9 11 16 28 18 32 4 40 -8 19
-29z"/>
<path d="M610 3259 c0 -33 4 -59 10 -59 6 0 10 20 10 44 0 46 19 72 45 62 11
-4 15 -20 15 -56 0 -28 5 -50 10 -50 7 0 10 22 8 58 l-3 57 -47 1 -48 2 0 -59z"/>
<path d="M740 3260 c0 -33 4 -60 10 -60 6 0 10 27 10 60 0 33 -4 60 -10 60 -6
0 -10 -27 -10 -60z"/>
<path d="M790 3259 c0 -70 18 -80 22 -13 2 32 9 51 21 58 24 15 36 -6 38 -64
l1 -45 9 49 c9 55 20 71 43 63 12 -5 16 -20 16 -57 0 -28 5 -50 10 -50 7 0 10
22 8 58 l-3 57 -82 1 -83 2 0 -59z"/>
<path d="M1005 3310 c-11 -18 1 -23 23 -9 11 7 27 9 36 6 23 -9 20 -37 -5 -37
-34 0 -59 -19 -59 -46 0 -23 3 -24 50 -23 l51 2 -3 56 -3 56 -42 3 c-23 2 -44
-2 -48 -8z m62 -87 c-18 -18 -47 -11 -47 11 0 9 11 16 28 18 32 4 40 -8 19
-29z"/>
<path d="M1142 3308 c-21 -21 -14 -77 14 -113 23 -30 24 -34 7 -38 -15 -4 -14
-5 4 -6 24 -1 39 14 23 24 -15 9 -12 25 4 25 16 0 41 28 33 36 -3 4 -14 -1
-23 -10 -9 -10 -23 -15 -31 -12 -8 3 -17 6 -19 6 -2 0 -4 18 -4 39 0 43 18 58
50 41 27 -14 34 -12 20 5 -15 18 -61 20 -78 3z"/>
<path d="M1266 3298 c-9 -12 -16 -29 -16 -38 0 -30 30 -60 60 -60 36 0 60 24
60 60 0 16 -7 36 -16 44 -23 24 -70 20 -88 -6z m68 -4 c20 -20 20 -48 0 -68
-28 -29 -57 -11 -57 34 0 45 29 63 57 34z"/>
<path d="M1402 3308 c-7 -7 -12 -28 -12 -48 0 -20 5 -41 12 -48 15 -15 74 -16
83 -1 11 17 -2 21 -23 8 -17 -10 -23 -10 -36 0 -30 25 -19 41 29 41 32 0 45 4
45 14 0 38 -70 62 -98 34z m66 -21 c3 -13 -3 -17 -27 -17 -20 0 -31 5 -31 14
0 29 53 32 58 3z"/>
<path d="M1521 3306 c-17 -20 -4 -42 32 -53 18 -5 32 -15 32 -23 0 -16 -27
-18 -60 -4 -18 7 -19 6 -6 -10 10 -12 25 -16 50 -14 30 3 36 7 39 29 3 22 -3
28 -40 42 -32 13 -39 20 -30 29 9 9 18 9 37 0 34 -16 40 -15 25 3 -16 19 -64
20 -79 1z"/>
<path d="M605 2838 c-31 -17 -45 -39 -45 -74 0 -46 34 -84 76 -84 36 0 80 33
68 51 -3 6 -16 -1 -29 -16 -30 -31 -40 -31 -70 0 -29 28 -32 61 -9 93 18 26
71 31 80 7 4 -8 12 -15 20 -15 21 0 6 26 -22 39 -31 14 -43 14 -69 -1z"/>
<path d="M870 2765 c0 -50 4 -85 10 -85 6 0 10 35 10 85 0 50 -4 85 -10 85 -6
0 -10 -35 -10 -85z"/>
<path d="M1390 2819 c0 -27 -2 -30 -15 -19 -12 10 -21 10 -40 2 -31 -15 -43
-57 -24 -91 12 -21 23 -26 57 -27 l42 -2 0 84 c0 49 -4 84 -10 84 -5 0 -10
-14 -10 -31z m-12 -41 c19 -19 15 -66 -7 -78 -37 -19 -63 28 -41 71 12 22 30
25 48 7z"/>
<path d="M1048 2823 c-2 -10 -2 -45 1 -78 6 -55 8 -60 31 -63 22 -2 23 -1 8 8
-21 13 -25 95 -5 104 10 5 10 7 0 12 -7 3 -13 12 -13 20 0 20 -17 17 -22 -3z"/>
<path d="M755 2796 c-22 -16 -26 -76 -6 -100 18 -22 64 -20 84 2 23 25 21 68
-3 92 -23 23 -49 25 -75 6z m65 -25 c14 -27 13 -47 -6 -65 -31 -32 -77 21 -54
64 14 25 46 26 60 1z"/>
<path d="M930 2790 c-24 -24 -26 -57 -4 -88 18 -26 65 -30 84 -7 18 22 5 31
-15 11 -21 -20 -28 -20 -48 2 -25 28 -21 32 28 32 38 0 45 3 45 19 0 25 -26
51 -51 51 -10 0 -28 -9 -39 -20z m68 -22 c3 -14 -3 -18 -27 -18 -29 0 -41 17
-24 34 13 13 48 1 51 -16z"/>
<path d="M1138 2803 c-9 -2 -19 -11 -22 -19 -7 -17 -2 -18 23 -2 22 14 51 4
51 -17 0 -10 -10 -15 -29 -15 -33 0 -54 -21 -49 -47 3 -14 14 -18 53 -19 l50
-1 -4 56 c-4 68 -17 79 -73 64z m52 -78 c0 -17 -29 -34 -47 -28 -7 3 -13 11
-13 18 0 12 9 16 53 24 4 0 7 -6 7 -14z"/>
<path d="M1450 2790 c-24 -24 -26 -57 -4 -88 18 -26 65 -30 84 -7 18 22 5 31
-15 11 -21 -20 -28 -20 -48 2 -25 28 -21 32 28 32 38 0 45 3 45 19 0 25 -26
51 -51 51 -10 0 -28 -9 -39 -20z m68 -22 c3 -14 -3 -18 -27 -18 -29 0 -41 17
-24 34 13 13 48 1 51 -16z"/>
<path d="M820 2547 c0 -18 -5 -22 -32 -22 -44 0 -66 -40 -46 -82 11 -23 21
-29 56 -31 l42 -3 0 80 c0 47 -4 81 -10 81 -5 0 -10 -10 -10 -23z m-12 -39
c16 -16 15 -63 -2 -77 -17 -14 -46 -4 -48 18 -5 57 21 88 50 59z"/>
<path d="M1080 2547 c0 -18 -5 -22 -32 -22 -44 0 -66 -40 -46 -82 11 -23 21
-29 56 -31 l42 -3 0 80 c0 47 -4 81 -10 81 -5 0 -10 -10 -10 -23z m-12 -39
c16 -16 15 -63 -2 -77 -17 -14 -46 -4 -48 18 -5 57 21 88 50 59z"/>
<path d="M875 2520 c-11 -18 1 -23 23 -9 11 7 27 9 36 6 23 -9 20 -37 -5 -37
-34 0 -59 -19 -59 -46 0 -23 3 -24 50 -23 l51 2 -3 56 -3 56 -42 3 c-23 2 -44
-2 -48 -8z m62 -87 c-18 -18 -47 -11 -47 11 0 9 11 16 28 18 32 4 40 -8 19
-29z"/>
<path d="M1136 2508 c-9 -12 -16 -29 -16 -38 0 -50 69 -79 104 -44 20 20 20
68 0 88 -23 24 -70 20 -88 -6z m68 -4 c9 -8 16 -24 16 -34 0 -18 -25 -50 -38
-50 -20 1 -35 22 -35 50 0 45 29 63 57 34z"/>
<path d="M1267 2523 c-18 -17 -5 -45 28 -59 19 -8 35 -19 35 -24 0 -16 -30
-24 -43 -11 -6 6 -17 11 -25 11 -12 0 -12 -3 -2 -16 9 -10 26 -14 49 -12 31 3
36 7 39 30 3 22 -2 28 -32 38 -20 6 -36 16 -36 21 0 16 29 22 45 9 17 -14 31
-8 20 9 -7 12 -68 15 -78 4z"/>
<path d="M501 2038 c-5 -13 -18 -47 -30 -76 -23 -59 -25 -72 -11 -72 5 0 12
11 16 25 5 21 12 25 45 25 33 0 40 -4 45 -25 4 -18 13 -25 30 -25 21 0 24 5
24 38 0 46 20 78 44 69 12 -5 16 -19 16 -57 0 -27 5 -50 10 -50 6 0 10 24 10
54 0 64 -17 85 -55 68 -15 -7 -25 -8 -25 -2 0 6 -4 10 -10 10 -5 0 -10 -26
-12 -57 l-3 -58 -30 74 c-33 81 -50 96 -64 59z m38 -48 c10 -29 9 -30 -19 -30
-27 0 -28 1 -17 30 6 17 14 30 18 30 4 0 12 -13 18 -30z"/>
<path d="M780 2045 c-7 -8 -8 -15 -2 -15 5 0 15 7 22 15 7 8 8 15 2 15 -5 0
-15 -7 -22 -15z"/>
<path d="M860 1975 c0 -50 4 -85 10 -85 6 0 10 35 10 85 0 50 -4 85 -10 85 -6
0 -10 -35 -10 -85z"/>
<path d="M910 2050 c0 -5 5 -10 10 -10 6 0 10 5 10 10 0 6 -4 10 -10 10 -5 0
-10 -4 -10 -10z"/>
<path d="M1360 2035 c0 -22 -3 -25 -24 -19 -33 8 -56 -19 -56 -65 0 -47 16
-62 64 -59 l36 3 0 83 c0 48 -4 82 -10 82 -5 0 -10 -11 -10 -25z m1 -61 c14
-38 -13 -79 -41 -64 -20 11 -29 68 -13 83 15 16 44 5 54 -19z"/>
<path d="M758 2013 c-9 -2 -19 -11 -22 -19 -7 -17 -2 -18 23 -2 22 14 51 4 51
-17 0 -10 -10 -15 -29 -15 -33 0 -54 -21 -49 -47 3 -14 14 -18 53 -19 l50 -1
-4 56 c-4 68 -17 79 -73 64z m52 -78 c0 -17 -29 -34 -47 -28 -7 3 -13 11 -13
18 0 12 9 16 53 24 4 0 7 -6 7 -14z"/>
<path d="M910 1955 c0 -37 4 -65 10 -65 6 0 10 28 10 65 0 37 -4 65 -10 65 -6
0 -10 -28 -10 -65z"/>
<path d="M970 2005 c-19 -23 -7 -49 28 -59 33 -9 43 -30 18 -39 -7 -3 -24 1
-36 10 -20 14 -22 14 -18 -3 2 -15 12 -19 43 -19 38 0 40 2 40 30 0 24 -5 31
-32 39 -18 5 -33 15 -33 22 0 17 32 18 48 2 6 -6 15 -8 19 -4 10 10 -25 36
-48 36 -9 0 -22 -7 -29 -15z"/>
<path d="M1107 2002 c-20 -22 -22 -83 -5 -100 23 -23 88 -12 88 15 0 12 -3 12
-22 -1 -24 -17 -58 -6 -58 19 0 11 12 15 45 15 51 0 59 16 25 50 -25 25 -52
26 -73 2z m61 -24 c3 -14 -3 -18 -27 -18 -29 0 -41 17 -24 34 13 13 48 1 51
-16z"/>
<path d="M1432 2004 c-25 -17 -31 -81 -10 -102 17 -17 64 -15 82 4 24 24 20
80 -6 98 -12 9 -27 16 -33 16 -6 0 -21 -7 -33 -16z m56 -16 c33 -33 -1 -98
-40 -77 -18 10 -26 68 -11 82 10 11 38 8 51 -5z"/>
<path d="M1558 2009 c-10 -5 -18 -19 -18 -30 0 -18 7 -23 69 -45 12 -4 12 -7
-2 -21 -15 -15 -18 -15 -42 1 -26 17 -27 17 -23 -1 2 -13 14 -19 39 -21 70 -6
78 52 10 72 -17 5 -31 15 -31 22 0 17 32 18 48 2 6 -6 15 -8 19 -4 9 8 -24 36
-41 36 -6 0 -19 -5 -28 -11z"/>
<path d="M720 1756 c0 -19 -4 -22 -25 -18 -35 6 -55 -14 -55 -57 0 -47 14 -61
62 -61 l38 0 0 80 c0 47 -4 80 -10 80 -5 0 -10 -11 -10 -24z m-13 -34 c23 -15
21 -77 -3 -86 -36 -14 -62 52 -32 82 14 14 19 14 35 4z"/>
<path d="M980 1756 c0 -19 -4 -22 -25 -18 -35 6 -55 -14 -55 -57 0 -47 14 -61
62 -61 l38 0 0 80 c0 47 -4 80 -10 80 -5 0 -10 -11 -10 -24z m-13 -34 c23 -15
21 -77 -3 -86 -36 -14 -62 52 -32 82 14 14 19 14 35 4z"/>
<path d="M779 1724 c-13 -16 -12 -17 6 -10 34 15 59 12 63 -6 3 -13 -3 -18
-20 -18 -33 0 -61 -22 -56 -46 3 -16 12 -19 53 -20 l50 -1 -5 56 c-5 56 -5 56
-41 59 -25 2 -40 -2 -50 -14z m59 -85 c-19 -13 -43 -6 -43 11 0 20 49 31 53
12 2 -8 -2 -19 -10 -23z"/>
<path d="M1042 1728 c-17 -17 -15 -83 2 -97 8 -7 30 -11 48 -9 39 4 58 41 42
86 -7 21 -16 28 -44 30 -19 2 -41 -3 -48 -10z m67 -12 c17 -20 10 -67 -11 -79
-23 -15 -48 8 -48 42 0 45 35 66 59 37z"/>
<path d="M1167 1733 c-4 -3 -7 -15 -7 -25 0 -17 14 -27 64 -43 18 -5 19 -7 3
-23 -15 -14 -20 -15 -38 -4 -22 14 -35 10 -24 -7 9 -16 71 -13 85 4 18 22 6
41 -34 55 -20 6 -36 16 -36 21 0 16 29 22 45 9 17 -14 31 -8 20 9 -7 12 -68
15 -78 4z"/>
<path d="M1367 1722 c-22 -24 -22 -66 -1 -87 20 -19 85 -17 92 4 3 10 0 12
-12 8 -9 -4 -22 -10 -30 -13 -16 -6 -49 23 -41 37 4 5 24 9 46 9 31 0 39 4 39
18 0 42 -63 58 -93 24z m57 2 c28 -11 18 -34 -14 -34 -30 0 -43 23 -17 33 6 3
13 6 14 6 1 1 8 -2 17 -5z"/>
<path d="M450 1425 c0 -50 4 -85 10 -85 6 0 10 35 10 85 0 50 -4 85 -10 85 -6
0 -10 -35 -10 -85z"/>
<path d="M630 1427 l0 -84 32 -1 c53 -1 68 13 68 63 0 48 -23 72 -61 62 -15
-4 -19 0 -19 19 0 13 -4 24 -10 24 -6 0 -10 -34 -10 -83z m79 1 c12 -33 -2
-63 -30 -63 -19 0 -25 6 -27 28 -2 16 -1 35 2 43 9 22 46 17 55 -8z"/>
<path d="M1245 1502 c-12 -12 -3 -17 30 -19 21 -1 35 3 35 10 0 12 -55 19 -65
9z"/>
<path d="M1630 1485 c0 -22 -3 -24 -28 -19 -36 7 -56 -15 -56 -63 0 -43 23
-63 70 -61 l34 1 0 84 c0 49 -4 83 -10 83 -5 0 -10 -11 -10 -25z m-5 -80 c0
-34 -3 -40 -22 -43 -16 -2 -26 4 -34 21 -15 33 4 69 34 65 18 -2 22 -10 22
-43z"/>
<path d="M330 1450 c-11 -11 -20 -31 -20 -45 0 -51 70 -86 100 -50 16 19 5 34
-12 17 -18 -18 -46 -14 -58 8 -10 19 -8 20 35 20 41 0 45 2 45 25 0 43 -56 59
-90 25z m68 -17 c2 -9 -7 -13 -27 -13 -30 0 -39 9 -24 24 11 10 46 3 51 -11z"/>
<path d="M510 1455 c-7 -9 -9 -19 -5 -23 4 -4 10 -1 12 6 6 15 49 16 59 1 8
-14 -14 -29 -42 -29 -30 0 -51 -27 -37 -48 7 -12 25 -17 57 -18 l46 -1 0 52
c0 28 -5 56 -12 63 -17 17 -63 15 -78 -3z m70 -59 c0 -20 -16 -36 -35 -36 -31
0 -40 16 -18 29 18 10 53 15 53 7z"/>
<path d="M766 1448 c-44 -63 19 -138 79 -94 26 19 26 83 0 102 -28 21 -62 17
-79 -8z m75 -19 c8 -16 8 -28 0 -45 -18 -41 -71 -25 -71 21 0 44 50 61 71 24z"/>
<path d="M890 1403 c0 -36 4 -63 10 -63 6 0 10 23 10 51 0 42 3 52 20 56 31 8
24 22 -10 20 -30 -2 -30 -2 -30 -64z"/>
<path d="M980 1455 c-7 -9 -9 -19 -5 -23 4 -4 10 -1 12 6 6 15 49 16 59 1 8
-14 -14 -29 -42 -29 -30 0 -51 -27 -37 -48 7 -12 25 -17 57 -18 l46 -1 0 52
c0 28 -5 56 -12 63 -17 17 -63 15 -78 -3z m70 -59 c0 -20 -16 -36 -35 -36 -31
0 -40 16 -18 29 18 10 53 15 53 7z"/>
<path d="M1110 1450 c-27 -27 -25 -57 7 -103 22 -32 24 -40 12 -48 -11 -8 -10
-9 6 -7 14 3 19 11 18 25 -2 14 4 24 16 28 20 6 36 34 25 44 -3 3 -10 -2 -15
-12 -14 -24 -46 -21 -60 4 -23 44 25 91 59 57 6 -6 14 -9 17 -6 10 9 -25 38
-46 38 -10 0 -28 -9 -39 -20z"/>
<path d="M1240 1455 c-7 -9 -9 -19 -5 -23 4 -4 10 -1 12 6 6 15 49 16 59 1 8
-14 -14 -29 -42 -29 -30 0 -51 -27 -37 -48 7 -12 25 -17 57 -18 l46 -1 0 52
c0 28 -5 56 -12 63 -17 17 -63 15 -78 -3z m70 -59 c0 -20 -16 -36 -35 -36 -31
0 -40 16 -18 29 18 10 53 15 53 7z"/>
<path d="M1366 1448 c-44 -63 19 -138 79 -94 13 9 19 26 19 51 0 61 -66 90
-98 43z m75 -19 c8 -16 8 -28 0 -45 -18 -41 -71 -25 -71 21 0 44 50 61 71 24z"/>
<path d="M1698 1459 c-13 -7 -18 -23 -18 -54 0 -47 17 -65 58 -65 22 0 49 27
38 37 -4 4 -11 2 -15 -6 -11 -18 -55 -10 -59 12 -3 14 4 17 42 17 50 0 57 10
30 48 -16 23 -48 28 -76 11z m62 -24 c11 -13 7 -15 -24 -15 -34 0 -44 8 -29
23 11 12 40 8 53 -8z"/>
<path d="M850 1155 c0 -50 4 -85 10 -85 6 0 10 35 10 85 0 50 -4 85 -10 85 -6
0 -10 -35 -10 -85z"/>
<path d="M1145 1229 c-4 -6 -5 -13 -2 -16 7 -7 27 6 27 18 0 12 -17 12 -25 -2z"/>
<path d="M1310 1230 c0 -5 5 -10 10 -10 6 0 10 5 10 10 0 6 -4 10 -10 10 -5 0
-10 -4 -10 -10z"/>
<path d="M1040 1216 c0 -8 -6 -17 -12 -20 -10 -5 -10 -7 0 -12 7 -3 12 -26 12
-60 0 -49 2 -54 22 -54 17 0 19 3 10 12 -16 16 -16 95 1 102 10 5 10 7 0 12
-7 3 -13 12 -13 20 0 8 -4 14 -10 14 -5 0 -10 -6 -10 -14z"/>
<path d="M640 1134 c0 -36 4 -64 10 -64 6 0 10 16 10 36 0 43 15 74 37 74 28
0 3 15 -28 16 l-29 2 0 -64z"/>
<path d="M740 1180 c-24 -24 -26 -72 -4 -94 20 -20 68 -21 84 -1 19 23 5 29
-23 10 -23 -15 -26 -15 -41 0 -26 26 -19 35 29 35 38 0 45 3 45 19 0 20 -35
51 -57 51 -7 0 -22 -9 -33 -20z m68 -22 c3 -14 -3 -18 -26 -18 -35 0 -45 9
-30 27 15 19 52 12 56 -9z"/>
<path d="M928 1193 c-9 -2 -19 -11 -22 -19 -7 -17 -2 -18 23 -2 22 14 51 4 51
-17 0 -10 -10 -15 -29 -15 -33 0 -54 -21 -49 -47 3 -14 14 -18 53 -19 l50 -1
-4 56 c-4 68 -17 79 -73 64z m52 -78 c0 -17 -29 -34 -47 -28 -7 3 -13 11 -13
18 0 12 9 16 53 24 4 0 7 -6 7 -14z"/>
<path d="M1110 1180 c-41 -41 -14 -110 42 -110 34 0 52 24 52 67 0 58 -54 83
-94 43z m70 -20 c23 -43 -23 -96 -54 -64 -19 18 -20 38 -6 65 14 25 46 24 60
-1z"/>
<path d="M1230 1133 c0 -35 4 -63 10 -63 6 0 10 23 10 51 0 42 3 52 20 56 30
8 24 22 -10 21 l-30 -1 0 -64z"/>
<path d="M1310 1135 c0 -37 4 -65 10 -65 6 0 10 28 10 65 0 37 -4 65 -10 65
-6 0 -10 -28 -10 -65z"/>
<path d="M1370 1180 c-41 -41 -14 -110 42 -110 34 0 52 24 52 67 0 58 -54 83
-94 43z m70 -20 c23 -43 -23 -96 -54 -64 -19 18 -20 38 -6 65 14 25 46 24 60
-1z"/>
<path d="M378 703 c-3 -10 -17 -48 -31 -85 -20 -51 -23 -68 -13 -68 8 0 17 11
20 25 5 21 12 25 45 25 33 0 40 -4 45 -25 4 -14 13 -25 21 -25 9 0 15 -10 15
-25 0 -14 5 -25 10 -25 6 0 10 13 10 30 0 27 2 29 29 24 50 -10 79 56 46 103
-12 17 -25 22 -55 20 l-40 -1 0 -61 -1 -60 -33 80 c-33 78 -58 104 -68 68z
m40 -55 c11 -27 11 -28 -19 -28 -26 0 -30 3 -24 18 4 9 10 25 12 35 6 21 14
14 31 -25z m140 0 c26 -26 7 -78 -29 -78 -28 0 -40 55 -17 78 7 7 17 12 23 12
6 0 16 -5 23 -12z"/>
<path d="M1555 712 c-11 -12 -3 -17 27 -17 40 0 48 20 8 21 -16 1 -32 -1 -35
-4z"/>
<path d="M1221 698 c0 -9 -7 -19 -13 -22 -10 -5 -10 -7 0 -12 7 -3 12 -26 12
-60 0 -47 2 -54 20 -54 23 0 27 15 5 24 -10 3 -15 19 -15 46 0 29 4 40 15 40
8 0 15 5 15 10 0 6 -6 10 -14 10 -8 0 -17 8 -19 18 -4 15 -5 15 -6 0z"/>
<path d="M610 613 c0 -35 4 -63 10 -63 6 0 10 23 10 51 0 42 3 52 20 56 30 8
24 22 -10 21 l-30 -1 0 -64z"/>
<path d="M706 664 c-21 -20 -21 -78 0 -98 20 -21 58 -20 79 0 19 20 12 32 -9
15 -20 -17 -60 -10 -64 12 -3 14 4 17 42 17 38 0 46 3 46 18 0 43 -63 67 -94
36z m68 -19 c4 -12 -3 -15 -29 -15 -33 0 -43 8 -28 23 12 13 51 7 57 -8z"/>
<path d="M833 673 c-7 -2 -13 -15 -13 -28 0 -18 8 -26 35 -35 19 -6 35 -18 35
-26 0 -17 -41 -19 -58 -2 -6 6 -14 9 -17 6 -10 -10 26 -38 48 -38 58 1 65 58
10 75 -18 5 -33 15 -33 22 0 16 32 17 48 1 17 -17 28 -2 12 17 -12 15 -42 18
-67 8z"/>
<path d="M968 669 c-13 -7 -18 -23 -18 -54 0 -47 17 -65 58 -65 22 0 49 27 38
37 -4 4 -11 2 -15 -6 -11 -18 -55 -10 -59 12 -3 14 4 17 42 17 50 0 57 10 30
48 -16 23 -48 28 -76 11z m62 -24 c11 -13 7 -15 -24 -15 -34 0 -44 8 -29 23
11 12 40 8 53 -8z"/>
<path d="M1080 613 c0 -35 4 -63 10 -63 6 0 10 19 10 43 0 51 11 70 36 65 15
-2 20 -14 22 -56 4 -69 22 -67 22 2 0 62 -11 75 -62 73 l-38 -1 0 -63z"/>
<path d="M1293 673 c-7 -2 -13 -12 -13 -21 0 -12 3 -13 12 -4 17 17 55 15 62
-3 4 -10 -3 -17 -22 -21 -46 -10 -52 -13 -58 -29 -11 -27 15 -45 62 -43 l44 2
0 44 c0 58 -14 82 -48 81 -15 0 -33 -3 -39 -6z m67 -72 c0 -15 -28 -33 -46
-29 -24 4 -29 25 -7 31 31 8 53 7 53 -2z"/>
<path d="M1417 662 c-25 -27 -21 -70 9 -105 24 -29 25 -32 8 -44 -17 -12 -17
-13 3 -13 27 0 38 17 24 34 -9 10 -7 15 8 19 21 5 49 47 31 47 -6 0 -13 -7
-16 -15 -10 -25 -53 -19 -60 9 -9 38 4 66 32 66 13 0 24 -4 24 -10 0 -5 5 -10
10 -10 16 0 11 27 -6 34 -28 11 -50 6 -67 -12z"/>
<path d="M1553 673 c-7 -2 -13 -12 -13 -21 0 -12 3 -13 12 -4 17 17 55 15 62
-3 4 -10 -3 -17 -22 -21 -46 -10 -52 -13 -58 -29 -11 -27 15 -45 62 -43 l44 2
0 44 c0 58 -14 82 -48 81 -15 0 -33 -3 -39 -6z m67 -72 c0 -15 -28 -33 -46
-29 -24 4 -29 25 -7 31 31 8 53 7 53 -2z"/>
<path d="M1677 662 c-22 -25 -21 -75 1 -95 41 -37 92 -10 92 48 0 59 -57 87
-93 47z m68 -47 c0 -36 -3 -40 -27 -43 -30 -4 -44 23 -34 64 5 20 12 25 34 22
24 -3 27 -7 27 -43z"/>
<path d="M560 419 c0 -27 -2 -30 -15 -19 -12 10 -22 10 -39 2 -30 -13 -41 -55
-24 -90 11 -23 20 -27 56 -28 l42 -2 0 84 c0 49 -4 84 -10 84 -5 0 -10 -14
-10 -31z m-12 -41 c19 -19 15 -66 -8 -78 -16 -9 -22 -6 -36 15 -29 44 9 98 44
63z"/>
<path d="M1020 365 c0 -50 4 -85 10 -85 6 0 10 35 10 85 0 50 -4 85 -10 85 -6
0 -10 -35 -10 -85z"/>
<path d="M1306 435 c-3 -8 -2 -15 3 -15 5 0 14 7 21 15 10 12 10 15 -3 15 -8
0 -17 -7 -21 -15z"/>
<path d="M1470 440 c0 -5 5 -10 10 -10 6 0 10 5 10 10 0 6 -4 10 -10 10 -5 0
-10 -4 -10 -10z"/>
<path d="M1198 423 c-2 -10 -2 -45 1 -78 5 -50 9 -60 26 -63 16 -3 18 -1 8 9
-7 7 -13 32 -13 55 0 24 5 45 13 48 10 5 10 7 0 12 -7 3 -13 12 -13 20 0 20
-17 17 -22 -3z"/>
<path d="M625 396 c-22 -16 -26 -76 -6 -100 18 -22 64 -20 84 2 23 25 21 68
-3 92 -23 23 -49 25 -75 6z m65 -25 c14 -27 13 -47 -6 -65 -31 -32 -77 21 -54
64 14 25 46 26 60 1z"/>
<path d="M810 343 c0 -36 4 -63 10 -63 6 0 10 23 10 51 0 42 3 52 20 56 31 8
24 22 -10 20 -30 -2 -30 -2 -30 -64z"/>
<path d="M900 390 c-24 -24 -26 -72 -4 -94 20 -20 68 -21 84 -1 19 23 5 29
-23 10 -23 -15 -26 -15 -41 0 -26 26 -19 35 29 35 38 0 45 3 45 19 0 20 -35
51 -57 51 -7 0 -22 -9 -33 -20z m68 -22 c3 -14 -3 -18 -26 -18 -35 0 -45 9
-30 27 15 19 52 12 56 -9z"/>
<path d="M1079 390 c-20 -16 -21 -19 -6 -20 9 0 17 5 17 10 0 15 47 12 53 -4
8 -19 -1 -26 -33 -26 -32 0 -53 -21 -48 -47 3 -14 14 -18 56 -19 l52 -1 0 48
c0 74 -41 101 -91 59z m65 -58 c7 -11 -7 -30 -24 -32 -44 -7 -56 14 -17 30 29
11 35 12 41 2z"/>
<path d="M1275 396 c-22 -16 -26 -76 -6 -100 18 -22 64 -20 84 2 23 25 21 68
-3 92 -23 23 -49 25 -75 6z m65 -25 c14 -27 13 -47 -6 -65 -31 -32 -77 21 -54
64 14 25 46 26 60 1z"/>
<path d="M1390 343 c0 -35 4 -63 10 -63 6 0 10 18 10 39 0 49 8 71 26 71 8 0
14 4 14 8 0 5 -13 9 -30 9 l-30 0 0 -64z"/>
<path d="M1470 345 c0 -37 4 -65 10 -65 6 0 10 28 10 65 0 37 -4 65 -10 65 -6
0 -10 -28 -10 -65z"/>
<path d="M1530 390 c-41 -41 -14 -110 42 -110 34 0 52 24 52 67 0 58 -54 83
-94 43z m70 -20 c23 -43 -23 -96 -54 -64 -19 18 -20 38 -6 65 14 25 46 24 60
-1z"/>
</g>
</svg>
